<mxfile host="Electron" modified="2024-03-19T21:22:54.889Z" agent="Mozilla/5.0 (X11; Linux x86_64) AppleWebKit/537.36 (KHTML, like Gecko) draw.io/24.0.4 Chrome/120.0.6099.109 Electron/28.1.0 Safari/537.36" etag="5WrYq1Mm8WAb8jvwYBW2" version="24.0.4" type="device">
  <diagram name="Page-1" id="JbFj7xJ0vqkOoYfW-OmR">
    <mxGraphModel dx="1364" dy="843" grid="1" gridSize="10" guides="1" tooltips="1" connect="1" arrows="1" fold="1" page="1" pageScale="1" pageWidth="850" pageHeight="2000" math="0" shadow="0">
      <root>
        <mxCell id="0" />
        <mxCell id="1" parent="0" />
        <mxCell id="rKDn1DTM9HF410k9TBxs-31" value="" style="edgeStyle=orthogonalEdgeStyle;rounded=0;orthogonalLoop=1;jettySize=auto;html=1;" edge="1" parent="1" source="rKDn1DTM9HF410k9TBxs-5" target="rKDn1DTM9HF410k9TBxs-6">
          <mxGeometry relative="1" as="geometry" />
        </mxCell>
        <mxCell id="rKDn1DTM9HF410k9TBxs-11" value="" style="edgeStyle=orthogonalEdgeStyle;rounded=0;orthogonalLoop=1;jettySize=auto;html=1;" edge="1" parent="1" source="rKDn1DTM9HF410k9TBxs-1" target="rKDn1DTM9HF410k9TBxs-2">
          <mxGeometry relative="1" as="geometry" />
        </mxCell>
        <mxCell id="rKDn1DTM9HF410k9TBxs-20" value="Waypoint reached" style="edgeLabel;html=1;align=center;verticalAlign=middle;resizable=0;points=[];" vertex="1" connectable="0" parent="rKDn1DTM9HF410k9TBxs-11">
          <mxGeometry x="-0.32" y="-3" relative="1" as="geometry">
            <mxPoint as="offset" />
          </mxGeometry>
        </mxCell>
        <mxCell id="rKDn1DTM9HF410k9TBxs-1" value="&lt;span&gt;Fly to next waypoint&lt;/span&gt;" style="rounded=1;whiteSpace=wrap;html=1;fontStyle=0" vertex="1" parent="1">
          <mxGeometry x="365" y="100" width="120" height="60" as="geometry" />
        </mxCell>
        <mxCell id="rKDn1DTM9HF410k9TBxs-12" value="" style="edgeStyle=orthogonalEdgeStyle;rounded=0;orthogonalLoop=1;jettySize=auto;html=1;" edge="1" parent="1" source="rKDn1DTM9HF410k9TBxs-2" target="rKDn1DTM9HF410k9TBxs-3">
          <mxGeometry relative="1" as="geometry" />
        </mxCell>
        <mxCell id="rKDn1DTM9HF410k9TBxs-21" value="Square detected" style="edgeLabel;html=1;align=center;verticalAlign=middle;resizable=0;points=[];" vertex="1" connectable="0" parent="rKDn1DTM9HF410k9TBxs-12">
          <mxGeometry x="-0.24" y="3" relative="1" as="geometry">
            <mxPoint as="offset" />
          </mxGeometry>
        </mxCell>
        <mxCell id="rKDn1DTM9HF410k9TBxs-22" style="edgeStyle=orthogonalEdgeStyle;rounded=0;orthogonalLoop=1;jettySize=auto;html=1;entryX=1;entryY=0.5;entryDx=0;entryDy=0;" edge="1" parent="1" source="rKDn1DTM9HF410k9TBxs-2" target="rKDn1DTM9HF410k9TBxs-1">
          <mxGeometry relative="1" as="geometry">
            <Array as="points">
              <mxPoint x="540" y="240" />
              <mxPoint x="540" y="130" />
            </Array>
          </mxGeometry>
        </mxCell>
        <mxCell id="rKDn1DTM9HF410k9TBxs-23" value="Square not detected" style="edgeLabel;html=1;align=center;verticalAlign=middle;resizable=0;points=[];" vertex="1" connectable="0" parent="rKDn1DTM9HF410k9TBxs-22">
          <mxGeometry x="0.1636" y="-5" relative="1" as="geometry">
            <mxPoint as="offset" />
          </mxGeometry>
        </mxCell>
        <mxCell id="rKDn1DTM9HF410k9TBxs-2" value="Detect square" style="rounded=1;whiteSpace=wrap;html=1;" vertex="1" parent="1">
          <mxGeometry x="365" y="210" width="120" height="60" as="geometry" />
        </mxCell>
        <mxCell id="rKDn1DTM9HF410k9TBxs-13" value="" style="edgeStyle=orthogonalEdgeStyle;rounded=0;orthogonalLoop=1;jettySize=auto;html=1;" edge="1" parent="1" source="rKDn1DTM9HF410k9TBxs-3" target="rKDn1DTM9HF410k9TBxs-4">
          <mxGeometry relative="1" as="geometry" />
        </mxCell>
        <mxCell id="rKDn1DTM9HF410k9TBxs-24" value="Target reached" style="edgeLabel;html=1;align=center;verticalAlign=middle;resizable=0;points=[];" vertex="1" connectable="0" parent="rKDn1DTM9HF410k9TBxs-13">
          <mxGeometry x="-0.04" y="1" relative="1" as="geometry">
            <mxPoint as="offset" />
          </mxGeometry>
        </mxCell>
        <mxCell id="rKDn1DTM9HF410k9TBxs-3" value="Fly to target" style="rounded=1;whiteSpace=wrap;html=1;" vertex="1" parent="1">
          <mxGeometry x="365" y="320" width="120" height="60" as="geometry" />
        </mxCell>
        <mxCell id="rKDn1DTM9HF410k9TBxs-14" value="" style="edgeStyle=orthogonalEdgeStyle;rounded=0;orthogonalLoop=1;jettySize=auto;html=1;fillColor=#f8cecc;strokeColor=#b85450;" edge="1" parent="1" source="rKDn1DTM9HF410k9TBxs-4" target="rKDn1DTM9HF410k9TBxs-5">
          <mxGeometry relative="1" as="geometry" />
        </mxCell>
        <mxCell id="rKDn1DTM9HF410k9TBxs-25" value="Square detected (in center)" style="edgeLabel;html=1;align=center;verticalAlign=middle;resizable=0;points=[];" vertex="1" connectable="0" parent="rKDn1DTM9HF410k9TBxs-14">
          <mxGeometry x="-0.28" y="2" relative="1" as="geometry">
            <mxPoint as="offset" />
          </mxGeometry>
        </mxCell>
        <mxCell id="rKDn1DTM9HF410k9TBxs-26" style="edgeStyle=orthogonalEdgeStyle;rounded=0;orthogonalLoop=1;jettySize=auto;html=1;fillColor=#f8cecc;strokeColor=#b85450;" edge="1" parent="1" source="rKDn1DTM9HF410k9TBxs-4" target="rKDn1DTM9HF410k9TBxs-27">
          <mxGeometry relative="1" as="geometry">
            <mxPoint x="540" y="130" as="targetPoint" />
          </mxGeometry>
        </mxCell>
        <mxCell id="rKDn1DTM9HF410k9TBxs-29" value="Square not detected (in center)" style="edgeLabel;html=1;align=center;verticalAlign=middle;resizable=0;points=[];" vertex="1" connectable="0" parent="rKDn1DTM9HF410k9TBxs-26">
          <mxGeometry x="-0.8424" y="-2" relative="1" as="geometry">
            <mxPoint x="56" y="-2" as="offset" />
          </mxGeometry>
        </mxCell>
        <mxCell id="rKDn1DTM9HF410k9TBxs-4" value="Check for target" style="rounded=1;whiteSpace=wrap;html=1;" vertex="1" parent="1">
          <mxGeometry x="365" y="430" width="120" height="60" as="geometry" />
        </mxCell>
        <mxCell id="rKDn1DTM9HF410k9TBxs-15" value="" style="edgeStyle=orthogonalEdgeStyle;rounded=0;orthogonalLoop=1;jettySize=auto;html=1;" edge="1" parent="1" source="rKDn1DTM9HF410k9TBxs-5" target="rKDn1DTM9HF410k9TBxs-6">
          <mxGeometry relative="1" as="geometry" />
        </mxCell>
        <mxCell id="rKDn1DTM9HF410k9TBxs-30" value="Area of square bigger than threshold" style="edgeLabel;html=1;align=center;verticalAlign=middle;resizable=0;points=[];" vertex="1" connectable="0" parent="rKDn1DTM9HF410k9TBxs-15">
          <mxGeometry x="-0.08" relative="1" as="geometry">
            <mxPoint as="offset" />
          </mxGeometry>
        </mxCell>
        <mxCell id="rKDn1DTM9HF410k9TBxs-39" style="edgeStyle=orthogonalEdgeStyle;rounded=0;orthogonalLoop=1;jettySize=auto;html=1;entryX=0.5;entryY=0;entryDx=0;entryDy=0;" edge="1" parent="1" source="rKDn1DTM9HF410k9TBxs-5" target="rKDn1DTM9HF410k9TBxs-46">
          <mxGeometry relative="1" as="geometry">
            <mxPoint x="781" y="570" as="targetPoint" />
            <Array as="points">
              <mxPoint x="780" y="570" />
            </Array>
          </mxGeometry>
        </mxCell>
        <mxCell id="rKDn1DTM9HF410k9TBxs-40" value="Object lost for more than theshold" style="edgeLabel;html=1;align=center;verticalAlign=middle;resizable=0;points=[];" vertex="1" connectable="0" parent="rKDn1DTM9HF410k9TBxs-39">
          <mxGeometry x="-0.7983" y="-2" relative="1" as="geometry">
            <mxPoint x="57" y="-2" as="offset" />
          </mxGeometry>
        </mxCell>
        <mxCell id="rKDn1DTM9HF410k9TBxs-5" value="Descend using square" style="rounded=1;whiteSpace=wrap;html=1;" vertex="1" parent="1">
          <mxGeometry x="365" y="540" width="120" height="60" as="geometry" />
        </mxCell>
        <mxCell id="rKDn1DTM9HF410k9TBxs-16" value="" style="edgeStyle=orthogonalEdgeStyle;rounded=0;orthogonalLoop=1;jettySize=auto;html=1;" edge="1" parent="1" source="rKDn1DTM9HF410k9TBxs-6" target="rKDn1DTM9HF410k9TBxs-7">
          <mxGeometry relative="1" as="geometry" />
        </mxCell>
        <mxCell id="rKDn1DTM9HF410k9TBxs-32" value="Altitude lower than threshold" style="edgeLabel;html=1;align=center;verticalAlign=middle;resizable=0;points=[];" vertex="1" connectable="0" parent="rKDn1DTM9HF410k9TBxs-16">
          <mxGeometry x="-0.32" y="2" relative="1" as="geometry">
            <mxPoint as="offset" />
          </mxGeometry>
        </mxCell>
        <mxCell id="rKDn1DTM9HF410k9TBxs-41" style="edgeStyle=orthogonalEdgeStyle;rounded=0;orthogonalLoop=1;jettySize=auto;html=1;entryX=0;entryY=0.5;entryDx=0;entryDy=0;" edge="1" parent="1" source="rKDn1DTM9HF410k9TBxs-6" target="rKDn1DTM9HF410k9TBxs-46">
          <mxGeometry relative="1" as="geometry">
            <mxPoint x="710" y="680" as="targetPoint" />
          </mxGeometry>
        </mxCell>
        <mxCell id="rKDn1DTM9HF410k9TBxs-6" value="Descend using concentric circles" style="rounded=1;whiteSpace=wrap;html=1;" vertex="1" parent="1">
          <mxGeometry x="365" y="650" width="120" height="60" as="geometry" />
        </mxCell>
        <mxCell id="rKDn1DTM9HF410k9TBxs-17" value="" style="edgeStyle=orthogonalEdgeStyle;rounded=0;orthogonalLoop=1;jettySize=auto;html=1;" edge="1" parent="1" source="rKDn1DTM9HF410k9TBxs-7" target="rKDn1DTM9HF410k9TBxs-8">
          <mxGeometry relative="1" as="geometry" />
        </mxCell>
        <mxCell id="rKDn1DTM9HF410k9TBxs-33" value="Altitude lower than threshold" style="edgeLabel;html=1;align=center;verticalAlign=middle;resizable=0;points=[];" vertex="1" connectable="0" parent="rKDn1DTM9HF410k9TBxs-17">
          <mxGeometry x="-0.32" y="-1" relative="1" as="geometry">
            <mxPoint as="offset" />
          </mxGeometry>
        </mxCell>
        <mxCell id="rKDn1DTM9HF410k9TBxs-42" style="edgeStyle=orthogonalEdgeStyle;rounded=0;orthogonalLoop=1;jettySize=auto;html=1;entryX=0.5;entryY=1;entryDx=0;entryDy=0;" edge="1" parent="1" source="rKDn1DTM9HF410k9TBxs-7" target="rKDn1DTM9HF410k9TBxs-46">
          <mxGeometry relative="1" as="geometry">
            <mxPoint x="770" y="790" as="targetPoint" />
          </mxGeometry>
        </mxCell>
        <mxCell id="rKDn1DTM9HF410k9TBxs-7" value="Descend using inner circle" style="rounded=1;whiteSpace=wrap;html=1;" vertex="1" parent="1">
          <mxGeometry x="365" y="760" width="120" height="60" as="geometry" />
        </mxCell>
        <mxCell id="rKDn1DTM9HF410k9TBxs-18" value="" style="edgeStyle=orthogonalEdgeStyle;rounded=0;orthogonalLoop=1;jettySize=auto;html=1;" edge="1" parent="1" source="rKDn1DTM9HF410k9TBxs-8" target="rKDn1DTM9HF410k9TBxs-9">
          <mxGeometry relative="1" as="geometry" />
        </mxCell>
        <mxCell id="rKDn1DTM9HF410k9TBxs-34" value="Tins detected with matching color" style="edgeLabel;html=1;align=center;verticalAlign=middle;resizable=0;points=[];" vertex="1" connectable="0" parent="rKDn1DTM9HF410k9TBxs-18">
          <mxGeometry x="-0.15" y="-2" relative="1" as="geometry">
            <mxPoint as="offset" />
          </mxGeometry>
        </mxCell>
        <mxCell id="rKDn1DTM9HF410k9TBxs-36" style="edgeStyle=orthogonalEdgeStyle;rounded=0;orthogonalLoop=1;jettySize=auto;html=1;entryX=0;entryY=0.5;entryDx=0;entryDy=0;" edge="1" parent="1" source="rKDn1DTM9HF410k9TBxs-8" target="rKDn1DTM9HF410k9TBxs-10">
          <mxGeometry relative="1" as="geometry">
            <Array as="points">
              <mxPoint x="300" y="900" />
              <mxPoint x="300" y="1100" />
            </Array>
          </mxGeometry>
        </mxCell>
        <mxCell id="rKDn1DTM9HF410k9TBxs-37" value="Tins detected but&lt;div&gt;no matchin color&lt;/div&gt;" style="edgeLabel;html=1;align=center;verticalAlign=middle;resizable=0;points=[];" vertex="1" connectable="0" parent="rKDn1DTM9HF410k9TBxs-36">
          <mxGeometry x="-0.0759" relative="1" as="geometry">
            <mxPoint as="offset" />
          </mxGeometry>
        </mxCell>
        <mxCell id="rKDn1DTM9HF410k9TBxs-47" style="edgeStyle=orthogonalEdgeStyle;rounded=0;orthogonalLoop=1;jettySize=auto;html=1;entryX=1;entryY=0.5;entryDx=0;entryDy=0;" edge="1" parent="1" source="rKDn1DTM9HF410k9TBxs-8" target="rKDn1DTM9HF410k9TBxs-27">
          <mxGeometry relative="1" as="geometry">
            <Array as="points">
              <mxPoint x="860" y="900" />
              <mxPoint x="860" y="130" />
            </Array>
          </mxGeometry>
        </mxCell>
        <mxCell id="rKDn1DTM9HF410k9TBxs-48" value="Tins not detected (save waypoint as dropoff)" style="edgeLabel;html=1;align=center;verticalAlign=middle;resizable=0;points=[];" vertex="1" connectable="0" parent="rKDn1DTM9HF410k9TBxs-47">
          <mxGeometry x="-0.8846" y="4" relative="1" as="geometry">
            <mxPoint x="52" y="4" as="offset" />
          </mxGeometry>
        </mxCell>
        <mxCell id="rKDn1DTM9HF410k9TBxs-8" value="Detect tins" style="rounded=1;whiteSpace=wrap;html=1;" vertex="1" parent="1">
          <mxGeometry x="365" y="870" width="120" height="60" as="geometry" />
        </mxCell>
        <mxCell id="rKDn1DTM9HF410k9TBxs-19" value="" style="edgeStyle=orthogonalEdgeStyle;rounded=0;orthogonalLoop=1;jettySize=auto;html=1;" edge="1" parent="1" source="rKDn1DTM9HF410k9TBxs-9" target="rKDn1DTM9HF410k9TBxs-10">
          <mxGeometry relative="1" as="geometry" />
        </mxCell>
        <mxCell id="rKDn1DTM9HF410k9TBxs-38" value="New location reached" style="edgeLabel;html=1;align=center;verticalAlign=middle;resizable=0;points=[];" vertex="1" connectable="0" parent="rKDn1DTM9HF410k9TBxs-19">
          <mxGeometry x="-0.15" y="-1" relative="1" as="geometry">
            <mxPoint as="offset" />
          </mxGeometry>
        </mxCell>
        <mxCell id="rKDn1DTM9HF410k9TBxs-9" value="Fly over specified tin&amp;nbsp;" style="rounded=1;whiteSpace=wrap;html=1;" vertex="1" parent="1">
          <mxGeometry x="365" y="970" width="120" height="60" as="geometry" />
        </mxCell>
        <mxCell id="rKDn1DTM9HF410k9TBxs-10" value="Land" style="rounded=1;whiteSpace=wrap;html=1;" vertex="1" parent="1">
          <mxGeometry x="365" y="1070" width="120" height="60" as="geometry" />
        </mxCell>
        <mxCell id="rKDn1DTM9HF410k9TBxs-28" style="edgeStyle=orthogonalEdgeStyle;rounded=0;orthogonalLoop=1;jettySize=auto;html=1;entryX=1;entryY=0.5;entryDx=0;entryDy=0;" edge="1" parent="1" source="rKDn1DTM9HF410k9TBxs-27" target="rKDn1DTM9HF410k9TBxs-1">
          <mxGeometry relative="1" as="geometry" />
        </mxCell>
        <mxCell id="rKDn1DTM9HF410k9TBxs-27" value="Climb to 10m" style="rounded=1;whiteSpace=wrap;html=1;fillColor=#f8cecc;strokeColor=#b85450;" vertex="1" parent="1">
          <mxGeometry x="620" y="100" width="120" height="60" as="geometry" />
        </mxCell>
        <mxCell id="rKDn1DTM9HF410k9TBxs-43" value="Object lost for more than theshold" style="edgeLabel;html=1;align=center;verticalAlign=middle;resizable=0;points=[];" vertex="1" connectable="0" parent="1">
          <mxGeometry x="580" y="680" as="geometry" />
        </mxCell>
        <mxCell id="rKDn1DTM9HF410k9TBxs-44" value="Object lost for more than theshold" style="edgeLabel;html=1;align=center;verticalAlign=middle;resizable=0;points=[];" vertex="1" connectable="0" parent="1">
          <mxGeometry x="580" y="790" as="geometry" />
        </mxCell>
        <mxCell id="rKDn1DTM9HF410k9TBxs-46" value="Return to lauch" style="rounded=1;whiteSpace=wrap;html=1;" vertex="1" parent="1">
          <mxGeometry x="720" y="650" width="120" height="60" as="geometry" />
        </mxCell>
      </root>
    </mxGraphModel>
  </diagram>
</mxfile>
